<svg id="visual" viewBox="0 0 960 540" width="960" height="540" xmlns="http://www.w3.org/2000/svg" xmlns:xlink="http://www.w3.org/1999/xlink" version="1.1"><rect x="0" y="0" width="960" height="540" fill="#ef4b4b"></rect><g transform="translate(515.574407429033 327.84901677807187)"><path d="M195 -285.2C278.2 -249.9 388.8 -239 413.2 -188C437.5 -137 375.6 -45.9 367.9 57.4C360.1 160.8 406.4 276.5 368.6 318.6C330.9 360.7 209.1 329 111.4 339.6C13.6 350.2 -60.1 403 -106.5 381C-153 359.1 -172.1 262.4 -237.4 199.1C-302.7 135.7 -414.2 105.6 -461 42.1C-507.8 -21.5 -489.9 -118.5 -463.2 -225.8C-436.4 -333 -400.7 -450.4 -322 -487.8C-243.3 -525.2 -121.6 -482.6 -32.9 -431.4C55.9 -380.3 111.7 -320.5 195 -285.2" fill="#FF5C5C"></path></g></svg>